#!OML:ASF X:\für Bonn\!DataBase\2005_08_11_Bastian_Final\c3d\Bastian.ASF
:FULLY-SPECIFIED
:DEGREES
70
root 1.26598 16.4089 30.0119 715.751 -5.21336 -8.81701
lowerback 15.2846 -1.08767 2.55563
upperback 7.5189 -1.09087 1.1371
thorax -0.631074 -0.515352 -0.0841642
lowerneck -18.0242 -4.20499 -5.32503
upperneck -1.2524 -5.05118 11.4473
head 2.95631 -2.01266 4.00292
rclavicle -3.26007e-014 -1.59028e-015
rhumerus -51.1107 -3.55332 -84.3819
rradius 25.1177
rwrist 2.1251
rhand -19.8829 10.8223
rfingers 7.12502
rthumb 6.4529 -19.0594
lclavicle -3.26007e-014 -1.59028e-015
lhumerus -32.3875 18.5024 73.617
lradius 33.3467
lwrist -165.18
lhand -16.0139 2.53704
lfingers 7.12502
lthumb 10.1867 32.2704
rfemur -26.0127 -4.52515 32.3177
rtibia 58.8548
rfoot -6.98845 10.6126
rtoes 33.8249
lfemur -27.9843 2.16698 -11.1569
ltibia 55.9806
lfoot -9.0065 -10.0393
ltoes -1.13048
71
root 1.27027 16.1195 30.1707 715.814 -5.17743 -8.83934
lowerback 15.4635 -1.14788 2.64105
upperback 7.52758 -1.15086 1.19132
thorax -0.717217 -0.545009 -0.0630942
lowerneck -18.6132 -4.13691 -4.95845
upperneck -1.92917 -4.95171 11.2214
head 2.81268 -1.97385 3.88117
rclavicle -6.75868e-015 2.22639e-014
rhumerus -50.2111 -4.13829 -84.0564
rradius 23.59
rwrist 2.81879
rhand -20.0035 10.4995
rfingers 7.12502
rthumb 6.3364 -19.3857
lclavicle -6.75868e-015 2.22639e-014
lhumerus -31.3312 20.8518 73.3453
lradius 32.1466
lwrist -166.871
lhand -16.0991 2.72318
lfingers 7.12502
lthumb 10.1046 32.4606
rfemur -26.6114 -4.9132 32.5005
rtibia 61.526
rfoot -11.7813 12.0522
rtoes 32.8202
lfemur -29.1569 2.50664 -11.24
ltibia 59.4814
lfoot -12.5566 -11.0206
ltoes 0.852282
72
root 1.27484 15.8585 30.3281 715.941 -5.12805 -8.8668
lowerback 15.571 -1.20503 2.72189
upperback 7.50287 -1.20832 1.26287
thorax -0.800639 -0.573896 -0.0223751
lowerneck -18.8448 -4.05333 -4.53969
upperneck -3.10043 -4.81387 10.8926
head 2.45723 -1.94566 3.72872
rclavicle 2.5842e-015 -1.66979e-014
rhumerus -49.1673 -4.81698 -83.6773
rradius 21.9721
rwrist 3.63482
rhand -20.2675 10.132
rfingers 7.12502
rthumb 6.0816 -19.7607
lclavicle 2.5842e-015 -1.66979e-014
lhumerus -30.2597 23.2058 73.1765
lradius 31.107
lwrist -168.604
lhand -16.5173 3.22626
lfingers 7.12502
lthumb 9.70108 32.9829
rfemur -27.2185 -5.15476 32.6984
rtibia 63.9498
rfoot -16.0825 12.8485
rtoes 33.1316
lfemur -30.3853 2.80546 -11.3106
ltibia 62.8826
lfoot -15.7502 -11.9639
ltoes 2.75091
73
root 1.27996 15.6284 30.4851 716.206 -5.05157 -8.83187
lowerback 15.496 -1.27898 2.76302
upperback 7.42176 -1.29896 1.31194
thorax -0.848329 -0.619654 0.019704
lowerneck -19.1086 -3.96502 -4.178
upperneck -4.16044 -4.67438 10.6084
head 2.14406 -1.91149 3.59963
rclavicle 5.96354e-015 -1.51076e-014
rhumerus -48.1478 -5.31566 -83.4641
rradius 20.5947
rwrist 4.35893
rhand -20.5864 9.45848
rfingers 7.12502
rthumb 5.77368 -20.4429
lclavicle 5.96354e-015 -1.51076e-014
lhumerus -29.2077 25.3161 73.1759
lradius 30.3232
lwrist -170.326
lhand -17.0294 3.46187
lfingers 7.12502
lthumb 9.20698 33.2409
rfemur -27.8706 -5.30632 32.8298
rtibia 66.0862
rfoot -19.8805 13.2106
rtoes 34.1875
lfemur -31.6944 3.05196 -11.4588
ltibia 66.0356
lfoot -18.4401 -12.7073
ltoes 3.69535
74
root 1.28538 15.4342 30.6397 716.441 -5.01486 -8.77104
lowerback 15.3908 -1.33816 2.78649
upperback 7.35982 -1.37498 1.34456
thorax -0.859553 -0.657878 0.0512392
lowerneck -19.4863 -3.8977 -3.97405
upperneck -5.03299 -4.55215 10.5226
head 1.91738 -1.86942 3.55464
rclavicle 1.15295e-014 -1.27222e-014
rhumerus -47.0024 -5.78025 -83.324
rradius 19.271
rwrist 5.16704
rhand -20.7494 8.73509
rfingers 7.12502
rthumb 5.61629 -21.1705
lclavicle 1.15295e-014 -1.27222e-014
lhumerus -28.0933 27.129 73.369
lradius 29.8939
lwrist -171.84
lhand -17.6126 2.96155
lfingers 7.12502
lthumb 8.64422 32.7646
rfemur -28.3325 -5.31152 32.9072
rtibia 67.8773
rfoot -23.1688 13.3552
rtoes 35.7661
lfemur -32.7738 3.27549 -11.6232
ltibia 68.8324
lfoot -20.7249 -13.206
ltoes 3.76381
75
root 1.29056 15.282 30.7927 716.465 -5.01825 -8.68673
lowerback 15.4328 -1.40925 2.76737
upperback 7.34403 -1.46795 1.38388
thorax -0.898652 -0.705898 0.119063
lowerneck -19.9691 -3.82763 -3.91388
upperneck -5.63358 -4.41959 10.5809
head 1.79606 -1.80553 3.57593
rclavicle -1.21259e-014 -3.18055e-015
rhumerus -45.6902 -6.38948 -83.0556
rradius 17.9958
rwrist 6.4395
rhand -21.0157 9.11823
rfingers 7.12502
rthumb 5.3592 -20.794
lclavicle -1.21259e-014 -3.18055e-015
lhumerus -26.9677 28.3119 73.8735
lradius 29.8331
lwrist -173.044
lhand -18.198 1.9683
lfingers 7.12502
lthumb 8.07927 31.7939
rfemur -28.3926 -5.24426 32.9279
rtibia 69.324
rfoot -26.0478 13.2784
rtoes 36.9992
lfemur -33.3608 3.47093 -11.7761
ltibia 71.1805
lfoot -22.6471 -13.6086
ltoes 3.72971
76
root 1.29648 15.172 30.9436 716.258 -5.12954 -8.57294
lowerback 15.6241 -1.46003 2.77457
upperback 7.38354 -1.52819 1.35659
thorax -0.95946 -0.735976 0.10015
lowerneck -20.4651 -3.77331 -3.9153
upperneck -6.03725 -4.31194 10.7689
head 1.74398 -1.74305 3.64418
rclavicle -1.63003e-014 -3.97569e-015
rhumerus -44.4502 -6.352 -83.4788
rradius 17.3499
rwrist 7.04042
rhand -21.8438 10.5035
rfingers 7.12502
rthumb 4.55955 -19.4274
lclavicle -1.63003e-014 -3.97569e-015
lhumerus -25.7712 28.4116 74.6802
lradius 30.2347
lwrist -173.479
lhand -18.6613 0.786046
lfingers 7.12502
lthumb 7.63209 30.6283
rfemur -28.0158 -5.01136 32.8904
rtibia 70.4232
rfoot -28.5069 12.8863
rtoes 37.6614
lfemur -33.4065 3.71037 -11.9297
ltibia 73.0373
lfoot -24.2482 -13.8685
ltoes 3.35587
77
root 1.30081 15.1034 31.0885 716.015 -5.29686 -8.43929
lowerback 15.7335 -1.502 2.73747
upperback 7.4647 -1.58764 1.34275
thorax -0.931627 -0.766128 0.117747
lowerneck -20.7978 -3.66112 -3.78845
upperneck -6.59135 -4.14264 10.6552
head 1.60326 -1.67149 3.60523
rclavicle 1.31198e-014 1.59028e-015
rhumerus -43.4544 -5.34684 -84.5634
rradius 17.6644
rwrist 6.74344
rhand -22.7326 11.5664
rfingers 7.12502
rthumb 3.70132 -18.3812
lclavicle 1.31198e-014 1.59028e-015
lhumerus -24.4742 27.7171 75.761
lradius 30.7025
lwrist -173.523
lhand -19.0835 0.557597
lfingers 7.12502
lthumb 7.22456 30.4143
rfemur -27.4828 -4.48999 32.8439
rtibia 71.2116
rfoot -29.7286 12.2482
rtoes 38.0003
lfemur -33.167 3.98182 -12.0654
ltibia 74.3946
lfoot -25.3937 -14.1024
ltoes 3.04391
78
root 1.30578 15.077 31.2299 715.863 -5.41691 -8.21158
lowerback 15.5974 -1.54707 2.63481
upperback 7.52919 -1.67024 1.28948
thorax -0.792504 -0.807678 0.128744
lowerneck -20.932 -3.51212 -3.64572
upperneck -7.21136 -3.92757 10.4783
head 1.40909 -1.5869 3.54903
rclavicle -9.34288e-015 2.94201e-014
rhumerus -42.85 -3.26223 -86.3861
rradius 19.0467
rwrist 5.19708
rhand -23.6959 12.1764
rfingers 7.12502
rthumb 2.771 -17.7853
lclavicle -9.34288e-015 2.94201e-014
lhumerus -23.1819 26.3418 76.9238
lradius 31.1952
lwrist -173.074
lhand -19.4662 1.11003
lfingers 7.12502
lthumb 6.85514 30.979
rfemur -26.9576 -3.94078 32.6395
rtibia 71.7065
rfoot -30.234 11.5538
rtoes 38.0297
lfemur -32.7944 4.21732 -12.3164
ltibia 75.2088
lfoot -26.1165 -14.2853
ltoes 2.75263
79
root 1.30944 15.0933 31.3728 715.926 -5.53862 -8.0083
lowerback 15.084 -1.60048 2.60267
upperback 7.53079 -1.76706 1.20747
thorax -0.524166 -0.85317 0.062779
lowerneck -20.8252 -3.34253 -3.48381
upperneck -7.84436 -3.69405 10.2547
head 1.17506 -1.50157 3.47719
rclavicle 8.74653e-015 -3.18055e-015
rhumerus -42.7239 -0.658208 -88.4384
rradius 21.2256
rwrist 3.0411
rhand -24.187 12.328
rfingers 7.12502
rthumb 2.29671 -17.6394
lclavicle 8.74653e-015 -3.18055e-015
lhumerus -21.9863 24.0325 78.0846
lradius 32.0132
lwrist -172.304
lhand -19.6095 1.65587
lfingers 7.12502
lthumb 6.71681 31.5293
rfemur -26.521 -3.39797 32.4134
rtibia 71.8637
rfoot -30.0587 11.0276
rtoes 38.0284
lfemur -32.3952 4.45055 -12.5294
ltibia 75.4635
lfoot -26.367 -14.4571
ltoes 2.41802
80
root 1.31252 15.151 31.5219 716.074 -5.60641 -7.7806
lowerback 14.3491 -1.66484 2.55426
upperback 7.43374 -1.88476 1.13594
thorax -0.241739 -0.909749 0.0141892
lowerneck -20.4819 -3.15627 -3.37826
upperneck -8.35689 -3.43934 9.99917
head 0.944577 -1.40713 3.40525
rclavicle 2.68359e-014 -1.74931e-014
rhumerus -43.0343 1.77452 -90.159
rradius 23.8611
rwrist 1.21661
rhand -24.0084 11.93
rfingers 7.12502
rthumb 2.46928 -18.0354
lclavicle 2.68359e-014 -1.74931e-014
lhumerus -21.0755 21.1295 79.206
lradius 33.2905
lwrist -171.597
lhand -19.7266 1.89513
lfingers 7.12502
lthumb 6.60373 31.7722
rfemur -25.9909 -3.00683 32.0918
rtibia 71.6228
rfoot -29.2668 10.685
rtoes 38.0897
lfemur -31.7685 4.61424 -12.7725
ltibia 75.0896
lfoot -26.1994 -14.5843
ltoes 2.17794
81
root 1.31494 15.2591 31.6808 716.026 -5.7223 -7.49365
lowerback 13.659 -1.71004 2.467
upperback 7.29435 -1.97825 1.05083
thorax -0.0248477 -0.95583 -0.029911
lowerneck -19.627 -3.03529 -3.59425
upperneck -8.89788 -3.23436 9.75995
head 0.725434 -1.33973 3.68815
rclavicle -2.62396e-014 -1.90833e-014
rhumerus -43.2811 3.91151 -91.6111
rradius 26.4849
rwrist 0.128902
rhand -24.0501 11.1962
rfingers 7.12502
rthumb 2.42897 -18.7698
lclavicle -2.62396e-014 -1.90833e-014
lhumerus -20.5803 17.9568 80.1565
lradius 34.843
lwrist -170.703
lhand -20.0786 2.25305
lfingers 7.12502
lthumb 6.26393 32.1404
rfemur -24.9645 -2.70898 31.6362
rtibia 70.8852
rfoot -28.1268 10.4936
rtoes 37.8919
lfemur -30.5003 4.73012 -13.0523
ltibia 74.0225
lfoot -25.747 -14.6327
ltoes 1.68045
82
root 1.31619 15.412 31.8493 715.757 -5.90265 -7.2136
lowerback 13.0571 -1.71718 2.44865
upperback 7.13677 -2.00951 0.920896
thorax 0.125135 -0.968784 -0.165479
lowerneck -19.0187 -2.95409 -3.77354
upperneck -8.82855 -3.10356 9.79767
head 0.645053 -1.2813 3.74592
rclavicle -1.41137e-014 -7.95139e-015
rhumerus -43.4484 5.3167 -92.6102
rradius 28.7765
rwrist 0.138792
rhand -24.5589 11.2964
rfingers 7.12502
rthumb 1.93758 -18.6745
lclavicle -1.41137e-014 -7.95139e-015
lhumerus -20.4079 14.6146 80.8886
lradius 36.5396
lwrist -169.73
lhand -20.6193 2.99386
lfingers 7.12502
lthumb 5.74191 32.8961
rfemur -23.3734 -2.43649 31.1436
rtibia 69.6163
rfoot -26.62 10.3946
rtoes 37.6824
lfemur -28.5754 4.81683 -13.2764
ltibia 72.31
lfoot -24.9762 -14.6434
ltoes 1.23588
83
root 1.31536 15.5992 32.0255 715.419 -6.16037 -6.95365
lowerback 12.4273 -1.6784 2.42466
upperback 6.91905 -1.97932 0.826748
thorax 0.231217 -0.952523 -0.26811
lowerneck -18.3547 -2.90698 -4.05459
upperneck -8.48573 -3.01961 9.84239
head 0.65392 -1.23872 3.82212
rclavicle -1.49089e-014 3.33958e-014
rhumerus -43.6977 6.2419 -93.1589
rradius 30.8901
rwrist 0.847715
rhand -25.2301 11.9447
rfingers 7.12502
rthumb 1.28934 -18.0311
lclavicle -1.49089e-014 3.33958e-014
lhumerus -20.5349 11.5799 81.4596
lradius 38.1225
lwrist -168.85
lhand -21.2573 4.29495
lfingers 7.12502
lthumb 5.12591 34.213
rfemur -21.4388 -2.11298 30.6544
rtibia 67.8446
rfoot -24.6741 10.3173
rtoes 37.7478
lfemur -26.2464 4.89231 -13.4623
ltibia 70.0454
lfoot -23.9967 -14.4927
ltoes 0.103195
84
root 1.3142 15.8132 32.2086 715.25 -6.40579 -6.72025
lowerback 11.5147 -1.65478 2.4564
upperback 6.59363 -1.96992 0.719606
thorax 0.376234 -0.944953 -0.418599
lowerneck -17.5538 -2.84448 -4.35633
upperneck -8.01981 -2.92621 9.90047
head 0.680249 -1.1922 3.9079
rclavicle -5.1684e-015 -3.18055e-015
rhumerus -44.0937 7.04251 -93.617
rradius 32.8872
rwrist 1.28011
rhand -26.0058 12.9323
rfingers 7.12502
rthumb 0.540155 -17.0467
lclavicle -5.1684e-015 -3.18055e-015
lhumerus -20.9272 8.69284 81.8476
lradius 39.4833
lwrist -167.851
lhand -21.6338 5.86482
lfingers 7.12502
lthumb 4.7624 35.7913
rfemur -19.4831 -1.79676 30.1801
rtibia 65.6029
rfoot -22.3489 10.1824
rtoes 38.1043
lfemur -23.9213 4.90502 -13.6416
ltibia 67.3267
lfoot -22.5631 -14.2287
ltoes -1.0973
